<?xml version="1.0" encoding="UTF-8" standalone="no"?>
<svg
   viewBox="0 0 48 42.244766"
   version="1.1"
   id="svg1"
   width="48"
   height="42.244766"
   xmlns="http://www.w3.org/2000/svg"
   xmlns:svg="http://www.w3.org/2000/svg">
  <defs
     id="defs1" />
  <!--!Font Awesome Free 6.7.2 by @fontawesome - https://fontawesome.com License - https://fontawesome.com/license/free Copyright 2025 Fonticons, Inc.-->
  <path
     d="M 10.401572,2.8508391 C 15.908841,6.9718601 21.831041,15.345927 24,19.844159 26.168959,15.355357 32.091159,6.9812901 37.598429,2.8508391 41.568566,-0.12912198 48,-2.4301039 48,4.9066341 c 0,1.46169 -0.839293,12.3064839 -1.329666,14.0699419 -1.716306,6.110806 -7.959136,7.676227 -13.513556,6.723772 9.703732,1.650294 12.17446,7.119843 6.836935,12.589391 C 29.865619,48.681881 25.442829,35.686988 24.311199,32.358108 v 0 C 24.150885,31.896026 24.066012,31.622548 24,31.622548 c -0.06601,0 -0.150884,0.282908 -0.311198,0.73556 v 0 C 22.557171,35.686988 18.124951,48.681881 8.0062869,38.289739 2.6781925,32.820191 5.1394892,27.350642 14.843222,25.700348 9.288802,26.652803 3.0459725,25.087382 1.3390962,18.967145 0.8392927,17.203687 0,6.3588941 0,4.8972041 0,-2.4395339 6.4314342,-0.13855198 10.401572,2.8414091 Z"
     id="path1"
     style="fill:#ffffff;fill-opacity:1;stroke-width:1" />
</svg>
