<?xml version="1.0" encoding="UTF-8" standalone="no"?>
<svg
   width="16"
   height="16"
   fill="currentColor"
   class="bi bi-reddit"
   viewBox="0 0 16 16"
   version="1.1"
   id="svg2"
   xmlns="http://www.w3.org/2000/svg"
   xmlns:svg="http://www.w3.org/2000/svg">
  <defs
     id="defs2" />
  <path
     d="m 6.167,8 a 0.83,0.83 0 0 0 -0.83,0.83 c 0,0.459 0.372,0.84 0.83,0.831 A 0.831,0.831 0 0 0 6.167,8 m 1.843,3.647 c 0.315,0 1.403,-0.038 1.976,-0.611 a 0.23,0.23 0 0 0 0,-0.306 0.213,0.213 0 0 0 -0.306,0 c -0.353,0.363 -1.126,0.487 -1.67,0.487 -0.545,0 -1.308,-0.124 -1.671,-0.487 a 0.213,0.213 0 0 0 -0.306,0 0.213,0.213 0 0 0 0,0.306 c 0.564,0.563 1.652,0.61 1.977,0.61 z M 9.002,8.84 c 0,0.458 0.373,0.83 0.831,0.83 0.458,0 0.83,-0.381 0.83,-0.83 a 0.831,0.831 0 0 0 -1.66,0 z"
     id="path1"
     style="fill:#ffffff;fill-opacity:1" />
  <path
     d="M 16,8 A 8,8 0 1 1 0,8 8,8 0 0 1 16,8 M 12.172,6.835 C 11.857,6.835 11.57,6.959 11.36,7.16 10.559,6.587 9.46,6.215 8.239,6.167 l 0.534,-2.501 1.738,0.372 a 0.83,0.83 0 1 0 0.83,-0.869 0.83,0.83 0 0 0 -0.744,0.468 L 8.659,3.227 A 0.2,0.2 0 0 0 8.506,3.255 0.2,0.2 0 0 0 8.42,3.389 L 7.828,6.177 C 6.588,6.215 5.47,6.587 4.658,7.169 4.448,6.969 4.162,6.845 3.848,6.845 A 1.163,1.163 0 0 0 3.37,9.069 Q 3.34,9.239 3.341,9.422 c 0,1.795 2.091,3.256 4.669,3.256 2.578,0 4.668,-1.451 4.668,-3.256 0,-0.114 -0.01,-0.238 -0.029,-0.353 C 13.05,8.888 13.337,8.477 13.337,8 c 0,-0.65 -0.525,-1.165 -1.165,-1.165"
     id="path2"
     style="fill:#ffffff;fill-opacity:1" />
</svg>
