<?xml version="1.0" encoding="UTF-8" standalone="no"?>
<svg
   width="16"
   height="16"
   fill="currentColor"
   class="bi bi-telegram"
   viewBox="0 0 16 16"
   version="1.1"
   id="svg1"
   xmlns="http://www.w3.org/2000/svg"
   xmlns:svg="http://www.w3.org/2000/svg">
  <defs
     id="defs1" />
  <path
     d="M 16,8 A 8,8 0 1 1 0,8 8,8 0 0 1 16,8 M 8.287,5.906 Q 7.119,6.392 3.621,7.916 3.054,8.141 3.026,8.358 c -0.03,0.243 0.275,0.339 0.69,0.47 l 0.175,0.055 c 0.408,0.133 0.958,0.288 1.243,0.294 q 0.39,0.01 0.868,-0.32 3.269,-2.206 3.374,-2.23 C 9.426,6.615 9.496,6.601 9.542,6.643 9.588,6.685 9.584,6.763 9.579,6.784 9.549,6.913 8.352,8.025 7.733,8.601 7.54,8.781 7.403,8.908 7.375,8.937 A 8,8 0 0 1 7.187,9.123 c -0.38,0.366 -0.664,0.64 0.015,1.088 0.327,0.216 0.589,0.393 0.85,0.571 0.284,0.194 0.568,0.387 0.936,0.629 q 0.14,0.092 0.27,0.187 c 0.331,0.236 0.63,0.448 0.997,0.414 0.214,-0.02 0.435,-0.22 0.547,-0.82 0.265,-1.417 0.786,-4.486 0.906,-5.751 A 1.4,1.4 0 0 0 11.695,5.126 0.34,0.34 0 0 0 11.581,4.909 0.53,0.53 0 0 0 11.271,4.816 c -0.3,0.005 -0.763,0.166 -2.984,1.09"
     id="path1"
     style="fill:#ffffff;fill-opacity:1" />
</svg>
