<?xml version="1.0" encoding="UTF-8" standalone="no"?>
<svg
   width="16"
   height="16"
   fill="currentColor"
   class="bi bi-twitter"
   viewBox="0 0 16 16"
   version="1.1"
   id="svg1"
   xmlns="http://www.w3.org/2000/svg"
   xmlns:svg="http://www.w3.org/2000/svg">
  <defs
     id="defs1" />
  <path
     d="m 5.026,15 c 6.038,0 9.341,-5.003 9.341,-9.334 Q 14.369,5.455 14.361,5.244 A 6.7,6.7 0 0 0 16,3.542 6.7,6.7 0 0 1 14.111,4.06 3.3,3.3 0 0 0 15.558,2.243 6.5,6.5 0 0 1 13.471,3.036 3.286,3.286 0 0 0 7.875,6.03 9.32,9.32 0 0 1 1.108,2.601 3.29,3.29 0 0 0 2.126,6.983 3.3,3.3 0 0 1 0.64,6.575 V 6.62 A 3.29,3.29 0 0 0 3.272,9.838 3.2,3.2 0 0 1 2.407,9.953 3,3 0 0 1 1.793,9.896 3.28,3.28 0 0 0 4.86,12.173 6.6,6.6 0 0 1 0.78,13.58 6,6 0 0 1 0,13.535 9.34,9.34 0 0 0 5.026,15"
     id="path1"
     style="fill:#ffffff;fill-opacity:1" />
</svg>
