<?xml version="1.0" encoding="UTF-8" standalone="no"?>
<svg
   version="1.1"
   id="MilwaukeeFlag"
   width="910.453"
   height="910.45276"
   xml:space="preserve"
   xmlns="http://www.w3.org/2000/svg"
   xmlns:svg="http://www.w3.org/2000/svg"><defs
   id="defs5" />




<path
   id="path23"
   style="font-weight:bold;font-size:133.301px;line-height:1.1;font-family:'Manifold DSA';-inkscape-font-specification:'Manifold DSA Bold';letter-spacing:-11.4719px;word-spacing:0px;fill:#ec1f27;fill-opacity:1;stroke-width:9.99997;stroke-miterlimit:4.2;paint-order:stroke fill markers"
   d="m 437.78525,40.802004 a 415.67121,415.6723 0 0 0 -50.2921,4.849609 c 8.16721,72.758497 11.34831,146.189317 9.61269,220.281257 19.04421,-5.82509 38.32133,-9.43877 57.78141,-10.09961 l 15.39784,-0.51758 0.002,1.76172 c 15.70369,1.53088 31.2796,4.88358 46.69269,9.75 -6.84816,-14.69545 -13.36939,-29.4441 -19.70698,-44.26758 11.18362,-22.69666 22.53782,-45.03782 34.95274,-66.9375 20.21009,-32.54982 42.52077,-62.324564 69.89378,-88.273441 L 567.12754,55.026613 a 415.67121,415.6723 0 0 0 -23.83673,-5.919922 c -1.46882,1.746243 -2.93912,3.491416 -4.37933,5.261719 -33.83018,46.53524 -58.31958,95.60506 -82.87773,146.29298 -4.47934,9.80509 -8.96676,19.559 -13.51235,29.26562 -0.56882,-63.29092 -2.16745,-126.32844 -4.73615,-189.125006 z m -74.68844,10.15625 a 415.67121,415.6723 0 0 0 -15.936,3.466797 l -22.25931,6.896484 a 415.67121,415.6723 0 0 0 -31.35919,11.697266 c 0.39984,33.236209 -0.91705,66.115519 -4.7966,98.923839 -6.73982,70.14447 -24.38459,137.2714 -61.72008,206.48633 l -2.62447,0.13867 c 8.10199,-60.61819 8.7165,-115.56049 -4.45733,-161.16602 -8.84699,-27.88904 -22.74871,-51.69528 -42.17687,-71.06445 A 415.67121,415.6723 0 0 0 123.77798,206.136 c 30.2213,58.41188 2.08774,140.43688 -83.994991,245.91211 a 415.67121,415.6723 0 0 0 -0.228131,3.17968 415.67121,415.6723 0 0 0 0.22423,3.14453 H 92.853591 C 154.59269,369.11558 183.3489,292.44925 179.00901,228.41529 l 1.14064,-0.66015 c 16.3501,41.74557 15.46741,97.47105 0.70195,164.62695 -4.87597,21.18083 -10.97307,43.26011 -17.90729,65.99023 h 11.04972 c 31.34304,-43.85934 64.17818,-82.58927 98.51346,-115.01171 4.99917,-4.85971 10.0966,-9.29075 15.18336,-13.76563 19.89448,-53.2099 31.93906,-105.90491 38.86801,-159.19922 l 1.2128,-0.23242 c 2.59471,42.83804 1.57189,86.45111 -3.04369,130.83398 16.17046,-10.84382 32.6629,-19.78429 49.41661,-26.77539 3.22764,-75.43062 -0.42046,-149.85774 -11.04777,-223.263676 z m 263.85167,25.845712 c -19.09483,80.440204 -19.23612,165.452254 -0.63174,254.984374 3.99068,3.56475 8.00676,7.01242 11.94274,10.81836 20.71015,19.555 40.81053,41.65699 60.43318,65.54492 -16.02728,-37.66478 -27.76247,-73.96118 -35.11458,-108.86328 l 22.76433,3.2168 82.95572,22.94922 c -6.12617,-14.9929 -10.73411,-29.39991 -13.82432,-43.22071 l -78.25468,-32.00586 -21.68217,-5.35156 c -2.69005,-32.73903 -1.2208,-64.15388 4.40663,-94.24414 l 22.02143,10.67383 87.54954,61.39648 c 2.05674,-9.65637 5.40342,-18.80451 9.89736,-27.50195 A 415.67121,415.6723 0 0 0 763.32188,176.1985 L 696.23197,117.17506 641.18422,83.608646 a 415.67121,415.6723 0 0 0 -14.23574,-6.80468 z M 441.56208,404.39186 c -18.51094,2.61246 -36.99551,8.72605 -55.34802,18.02929 -1.35288,11.71483 -2.85516,23.44993 -4.44952,35.19727 h 58.4502 c 0.50534,-17.75576 0.99651,-35.50901 1.34734,-53.22656 z m 260.4531,7.83593 c 11.76872,14.51018 23.4087,29.49561 34.78311,45.41602 h 133.92636 a 415.67121,415.6723 0 0 0 0.17353,-2.41602 415.67121,415.6723 0 0 0 -0.0507,-2.0664 c -8.94978,-10.70347 -17.56023,-21.274 -25.28937,-31.4961 l -117.73102,-8.89453 z m -345.94166,28.50977 c -7.28926,5.17079 -14.55563,10.68018 -21.76991,16.88086 h 18.71451 c 1.04781,-5.63131 2.08159,-11.26038 3.0554,-16.88086 z" /><path
   id="path635"
   clip-path="none"
   style="color:#000000;display:inline;fill:#ec1f27;fill-opacity:1;stroke-width:2.00001;-inkscape-stroke:none;paint-order:markers stroke fill"
   d="m 495.65244,592.28834 c -6.38867,-0.0586 -12.82116,0.72162 -18.94849,2.4746 -3.92584,0.62125 -17.68433,3.69571 -30.45254,5.54883 -11.44353,1.93328 -19.1261,5.22588 -22.06432,8.27344 1.02385,0.10792 2.02973,0.20551 3.07294,0.31836 5.67131,0.61354 11.24978,1.59632 16.4215,3.04884 5.09979,1.4323 9.68028,2.77111 14.8168,7.15234 1.76424,1.34876 4.11845,3.1362 5.78126,6.73827 2.63547,1.43927 5.34561,3.03555 8.07426,4.69533 1.76612,0.51332 3.5295,1.10752 5.29381,1.78905 5.45487,2.10793 10.50752,4.57545 14.70176,10.39453 0.56585,0.78509 1.05729,1.66213 1.48772,2.59767 5.91499,4.59315 11.48647,9.40219 16.28113,14.18945 0.63279,0.60187 1.20686,1.13482 1.79775,1.68749 0.12472,-0.54192 0.26202,-1.19786 0.3841,-1.71679 0.63377,-2.69387 1.22117,-5.04874 1.82504,-7.13673 0.30196,-1.04397 0.60185,-2.0116 1.00417,-3.10156 0.32738,-0.8869 0.90502,-2.15091 2.04148,-3.93359 2.46519,-3.92711 5.45164,-5.78916 7.94168,-6.79492 0.83002,-0.33526 1.60527,-0.57615 2.28716,-0.76562 1.4141,-0.39299 2.67261,-0.61626 3.85482,-0.74415 1.18222,-0.12791 2.28812,-0.16045 3.39857,-0.16997 v -0.002 c 1.07721,-0.01 2.15662,0.0205 3.24452,0.082 0.67422,0.0375 1.36099,0.10602 2.04343,0.16807 0.38207,0.035 0.75901,0.0575 1.14456,0.0996 0.97536,0.10564 1.97077,0.23914 2.97543,0.38671 0.0979,0.0152 0.19239,0.0263 0.29054,0.0409 1.10099,0.16541 2.23108,0.35485 3.38101,0.56251 2.16107,-6.73359 1.53887,-11.93274 -1.25765,-19.35938 -5.75326,-15.41594 -28.00598,-26.31435 -50.82244,-26.52343 z m -81.01954,31.05469 c -5.90536,0.0261 -11.10676,0.67962 -14.23381,2.09961 -25.76395,11.75642 -35.88456,46.43604 -27.5921,76.65624 5.58678,4.00388 7.99969,8.72411 11.65805,14.86915 l 0.0721,0.12696 0.0721,0.12695 c 9.02797,15.84687 23.8003,28.99777 41.46909,37.77736 7.39484,2.31567 14.01638,2.93844 18.37915,1.23243 6.00509,-2.06416 4.00222,-5.77611 -11.21546,-22.69141 -11.79449,-12.96583 -20.17897,-24.50871 -25.16652,-34.7715 -0.62922,-0.65863 -1.185,-1.34903 -1.64566,-2.0664 -7.17969,-11.18047 -4.69678,-19.96291 -2.3749,-31.43749 l 0.0506,-0.25196 0.0586,-0.24609 c 1.94961,-8.22931 1.99891,-14.13141 8.11911,-21.18946 6.1202,-7.05804 11.78346,-7.68106 19.08498,-10.45312 l 0.0565,-0.0234 0.0586,-0.0234 c 5.20201,-1.92311 10.1656,-3.26085 14.96889,-4.04101 -6.92338,-3.52181 -20.61208,-5.74277 -31.81936,-5.69335 z m 40.88608,19.52538 c -5.45602,0.10297 -11.26118,1.54681 -19.07523,4.43555 -15.21772,5.77748 -14.01478,4.12886 -18.02232,21.04492 -4.00758,19.80445 0.79931,27.64599 11.61907,17.74024 4.80147,-4.53685 18.02333,-11.13785 29.23972,-15.25976 24.02678,-8.2573 29.23682,-18.15718 13.21209,-24.34961 -6.41144,-2.47661 -11.51731,-3.71437 -16.97333,-3.61134 z m -122.46912,4.00392 c -4.09234,0.17549 -7.82884,1.62829 -13.96277,4.56055 -15.21776,7.83449 -26.03696,30.5278 -26.43976,56.52539 -0.39664,31.35865 15.22526,64.36613 42.05599,88.29881 18.21945,16.59958 46.24006,33.50923 55.66387,34.72852 -9.70618,-10.07182 -18.13384,-22.15695 -24.65761,-35.24999 l -0.0371,-0.0742 -0.0371,-0.0742 c -4.78906,-9.87572 -9.7009,-24.74786 -14.00175,-39.63673 -2.15046,-7.44435 -4.05939,-14.74249 -5.47903,-21.13671 -1.41965,-6.39418 -2.48995,-11.18047 -2.48995,-16.95312 0,-3.98658 -0.37714,-8.78838 4.90774,-14.73633 0.9346,-1.05187 2.13433,-2.01587 3.46094,-2.83984 2.68394,-48.2183 2.56885,-48.4848 -6.51243,-51.33204 -4.50621,-1.23635 -7.77274,-1.95098 -10.68705,-2.07813 -0.60715,-0.0265 -1.19948,-0.027 -1.7841,-0.002 z m 201.72992,5.07616 c -2.88472,0.0263 -4.81053,0.51683 -5.4108,1.54883 -1.20365,1.64849 -4.00198,14.44273 -6.81272,28.05469 -2.42845,12.17981 -5.2729,21.9132 -9.33582,30.68164 -0.44972,1.87404 -0.92765,3.73529 -1.44091,5.57422 -3.88789,13.92959 -8.04802,26.26177 -18.81007,35.29493 l -0.18719,0.15627 -0.19497,0.15626 c -5.15425,4.03908 -8.80566,8.49901 -18.15102,9.08594 -1.03746,0.0651 -2.06312,0.0192 -3.06708,-0.0917 -1.63142,2.2066 -1.59467,3.40844 -0.27884,4.30859 5.05809,0.23332 10.1583,0.12468 15.26136,-0.36524 h 0.0292 l 0.0371,-0.008 c 12.86918,-1.17123 29.5506,-4.29 31.02772,-4.75782 l 0.0292,-0.008 0.0312,-0.0152 c 4.17882,-1.30336 7.66383,-3.52403 15.39785,-0.82618 6.67048,-2.23952 12.59262,-4.76166 16.88556,-7.39453 15.22397,-9.49005 43.6618,-32.18176 54.87811,-43.3203 14.82039,-15.26692 2.39998,-35.89591 -28.03472,-47.85938 -15.92591,-6.19297 -33.19914,-10.29341 -41.8532,-10.21486 z m -287.92433,5.10743 c -6.00523,0.0152 -9.55297,25.19081 -7.87734,59.0254 1.24482,21.44994 4.48458,35.88561 11.72631,50.31054 l 7.43863,15.23828 c 2.03359,-0.20484 4.16637,-0.33395 6.51634,-0.38477 1.32955,-0.0291 2.72126,-0.0367 4.1551,-0.0196 4.30353,0.0503 9.0174,0.3098 13.78924,0.80664 7.59735,0.52846 15.2207,1.97955 22.63758,4.15039 -17.61645,-23.27166 -27.61313,-50.85785 -27.26454,-78.41797 v -0.0234 -0.0215 c 0.0966,-6.24398 0.68089,-12.37517 1.70611,-18.29883 -13.28363,-16.53911 -28.66686,-32.37454 -32.82743,-32.36523 z m 416.9839,0.3164 c -4.88834,0.0407 -25.04331,22.07218 -39.10978,41.40625 -0.73451,8.07716 -3.93709,16.0088 -9.68485,21.92969 l -0.0937,0.10354 -0.0955,0.0976 c -1.63935,1.62799 -3.51405,3.3992 -5.56287,5.27149 -0.78948,2.31966 -1.54975,4.81415 -2.25791,7.44141 0.40986,-0.008 0.8215,-0.028 1.23033,-0.0293 1.40995,-0.004 2.81357,0.0291 4.2097,0.10355 h 0.002 c 16.75348,0.89166 32.40974,7.4956 44.46014,19.51758 l 0.0857,0.0801 0.08,0.0898 c 2.36033,2.43145 4.71883,4.54144 6.73862,7.14063 5.14516,-12.55042 7.57006,-25.80798 8.45644,-44.21485 1.34252,-33.85028 -2.45337,-58.98593 -8.45838,-58.93751 z m -164.37304,11.08399 c -0.90772,-0.004 -2.2671,1.54144 -4.54701,4.42968 -7.20881,9.07447 -30.43522,21.04361 -47.2601,25.17188 -7.20878,1.23278 -13.21989,4.94792 -13.21989,7.42774 0.40351,5.36182 16.82405,25.58098 30.44083,37.1289 8.00895,6.60813 8.81785,6.60655 18.82371,-1.23437 10.81972,-9.08154 20.42857,-43.32123 18.02818,-64.78125 -0.67706,-5.5684 -1.09864,-8.13665 -2.26572,-8.14258 z m -138.82629,44.26171 c -1.45703,0.0752 -2.30275,1.73904 -2.30275,5.14453 0,11.13862 12.82493,55.28556 20.43037,70.96875 9.48255,19.03145 24.42855,35.43955 40.08274,45.4297 18.2886,1.08358 40.69667,0.0619 62.96214,-4.18164 1.68886,-0.32586 3.50913,-0.63889 5.39712,-0.94142 1.78484,-1.30662 3.55023,-2.73635 5.3094,-4.18164 0.0458,-2.04816 0.42152,-3.44775 0.7546,-4.54296 0.82242,-2.70438 1.64396,-4.01149 2.46069,-5.36915 1.63351,-2.7153 3.44639,-5.07158 5.67401,-7.82031 4.45521,-5.49738 10.45864,-12.10506 17.19169,-19.09375 3.65659,-3.79529 7.47575,-7.65463 11.33245,-11.44141 -0.40488,-2.10473 -3.15772,-2.21741 -8.17565,-0.65233 -5.20506,1.64849 -20.4224,4.12728 -34.04608,5.36719 -47.25944,4.53689 -94.13019,-18.57167 -115.75584,-56.53125 -4.7577,-7.99149 -8.88651,-12.27949 -11.31489,-12.15431 z m 247.76747,35.92579 c -3.42538,0.0409 -6.9458,0.36816 -10.55056,0.98632 -2.00223,0.41391 -4.35458,1.11059 -6.88876,2.01368 -2.53418,0.9031 -5.25042,2.01213 -7.97872,3.25 -2.72832,1.23787 -5.46825,2.60521 -8.05282,4.02343 -2.58462,1.41824 -5.01381,2.88791 -7.1169,4.33203 -2.4536,1.75338 -5.28976,4.00327 -8.36675,6.60351 -3.07699,2.6003 -6.39512,5.55153 -9.81547,8.70705 -3.4203,3.15547 -6.94215,6.51461 -10.42577,9.93358 -6.96718,6.83803 -13.78098,13.91283 -19.3209,20.0547 -2.76999,3.07093 -5.22132,5.90784 -7.21439,8.36718 -1.99307,2.45935 -3.52708,4.53966 -4.46317,6.09571 -0.46805,0.77801 -0.78658,1.42632 -0.93787,1.92383 -0.15133,0.49749 -0.13618,0.84486 0.0643,1.02538 0.20535,0.28246 0.68586,0.46738 1.27715,0.60939 0.002,5.9e-4 0.006,10e-4 0.007,0.002 3.66372,-0.31933 7.33833,-0.57682 10.96197,-0.78321 1.97604,-0.39318 4.05936,-0.88087 6.17708,-1.47655 24.43021,-7.01024 51.66381,0.41402 64.88466,17.33008 1.5937,1.95006 2.8392,3.38362 4.17069,4.03319 a 415.6712,415.67229 0 0 0 7.16369,-2.67186 c 0.33745,-0.29021 0.58926,-0.42718 0.95543,-0.76562 1.294,-1.1961 2.77512,-2.69696 4.4963,-4.54102 3.44238,-3.68813 7.84844,-8.74377 13.65665,-15.44923 9.61248,-11.44533 19.67526,-23.82528 25.45899,-31.73437 1.92794,-2.63637 3.38059,-4.77616 4.18239,-6.21874 1.40215,-2.27039 2.42892,-4.07629 3.0359,-5.65626 0.30349,-0.78998 0.50249,-1.52359 0.59081,-2.23047 0.0883,-0.70688 0.0652,-1.38689 -0.0721,-2.0703 -0.13784,-0.68343 -0.39142,-1.37022 -0.76627,-2.08985 -0.37487,-0.71965 -0.87077,-1.47159 -1.49358,-2.28712 -1.24567,-1.63103 -2.99846,-3.51419 -5.3016,-5.88671 -1.30176,-1.29869 -2.64558,-2.51574 -4.02837,-3.65235 -1.38278,-1.13661 -2.80385,-2.19233 -4.26428,-3.16601 -1.46043,-0.97369 -2.95971,-1.86589 -4.49437,-2.67578 -1.5347,-0.8099 -3.10522,-1.53838 -4.7108,-2.1836 -1.60559,-0.64521 -3.24634,-1.20781 -4.91944,-1.68751 -1.6731,-0.47963 -3.37911,-0.87616 -5.11636,-1.18944 -1.73726,-0.31328 -3.50553,-0.54344 -5.30356,-0.68945 -1.79801,-0.14599 -3.62558,-0.2076 -5.48098,-0.18558 z m 98.77278,24.32032 c -8.8156,0.0708 -25.21413,3.09046 -35.9959,7.30663 l -2.87991,1.03516 c -0.25502,1.04665 -0.5553,2.02477 -0.88717,2.88868 -1.21802,3.17061 -2.61821,5.42423 -4.0849,7.80077 -2.96982,5.29485 -6.92785,10.27217 -12.42241,17.24218 -3.54489,4.4969 -7.57697,9.43841 -11.69509,14.4297 0.32595,0.99317 0.83918,1.872 1.30834,2.77733 a 415.6712,415.67229 0 0 0 80.91424,-52.58594 c -5.66012,-0.60893 -10.78404,-1.00516 -14.2572,-0.89451 z m -502.5251,0.13095 c -3.66007,-0.0784 -9.09589,0.40495 -15.13461,1.14257 a 415.6712,415.67229 0 0 0 46.19938,33.52734 l 0.17738,-0.24413 c -1.16008,-9.03251 5.49236,-19.96222 13.38952,-23.68164 0.41474,-0.20203 0.70574,-0.29981 1.07241,-0.46095 l -9.63804,-3.35155 c -10.82271,-4.10341 -27.25013,-6.95448 -36.06609,-6.93164 z m 64.07549,23.24609 c -3.28366,-0.0362 -6.23997,0.0579 -8.56368,0.25782 -1.16189,0.0999 -2.16631,0.22553 -2.9735,0.37499 -0.80725,0.14941 -1.41772,0.323 -1.79385,0.51563 -0.95069,0.41301 -1.7633,0.90304 -2.4412,1.46093 -0.67789,0.55796 -1.22031,1.1836 -1.63007,1.86719 -0.40968,0.6836 -0.6883,1.42489 -0.83452,2.21484 -0.14616,0.78995 -0.1615,1.62888 -0.0488,2.50587 0.11271,0.87699 0.3545,1.79355 0.72144,2.73828 0.36694,0.94473 0.85944,1.91698 1.47602,2.91015 0.61659,0.99318 1.35737,2.00698 2.21891,3.02929 0.86161,1.02233 1.84422,2.05378 2.9462,3.08595 1.33466,1.45347 2.5736,3.07748 3.85483,4.62694 a 415.6712,415.67229 0 0 0 87.19662,34.46876 c -5.17679,-5.51506 -8.74347,-12.0648 -9.19932,-20.11718 0,-1.92496 -0.60702,-5.33051 2.05902,-9.91017 -10e-4,-10e-4 -0.002,-0.002 -0.004,-0.004 -6.23518,-7.44512 -15.64915,-14.32649 -26.25647,-19.56642 -0.14708,-0.0725 -0.29118,-0.14885 -0.43872,-0.2207 -2.46604,-1.20374 -5.00164,-2.30539 -7.56925,-3.31639 -0.31831,-0.12506 -0.636,-0.25114 -0.95542,-0.37305 -2.48986,-0.95189 -5.01201,-1.80324 -7.54586,-2.54689 -0.37956,-0.11116 -0.75875,-0.21408 -1.13872,-0.3203 -2.54711,-0.71319 -5.10123,-1.32817 -7.6414,-1.80274 -0.91791,-0.17131 -1.8305,-0.31123 -2.74341,-0.44922 -0.52228,-0.079 -1.04752,-0.17645 -1.56767,-0.24413 -1.48395,-0.19324 -2.96036,-0.3468 -4.42027,-0.44532 -4.35462,-0.46496 -8.76678,-0.69664 -12.70707,-0.74023 z m 88.19882,36.21875 c -2.20868,-0.15247 -2.59133,1.1919 -2.59133,3.72265 0,8.43643 17.26355,20.50951 40.19,30.05078 a 415.6712,415.67229 0 0 0 60.69835,4.56641 415.6712,415.67229 0 0 0 115.61157,-16.51172 c -0.5062,-1.326 -1.10568,-2.56048 -1.8153,-3.66991 -6.01133,-9.49013 -9.21177,-10.31447 -33.6483,-10.31447 -15.21776,0 -38.04673,2.06242 -50.8634,4.53516 -43.25829,8.25022 -85.71673,6.6098 -106.94649,-3.71093 -11.93789,-5.80183 -17.79536,-8.47192 -20.6351,-8.66797 z" /><path
   id="path58"
   clip-path="none"
   style="color:#000000;fill:#ec1f27;fill-opacity:1;stroke-width:4.34021;-inkscape-stroke:none;paint-order:markers stroke fill"
   d="m 455.39421,270.72193 c -59.41369,2.01763 -118.06872,30.36302 -172.58379,83.38477 -35.26627,33.29005 -69.22036,73.1512 -101.51426,119.16016 H 40.845649 a 415.67121,415.6723 0 0 0 2.926701,40.92773 l 822.90834,0.004 a 415.67121,415.6723 0 0 0 2.97934,-41.66016 H 729.4903 C 697.19639,426.51736 663.24216,386.65839 627.97605,353.36842 573.44165,300.61107 514.78734,272.51714 455.39421,270.72779 Z m 1.22839,39.22266 h 0.002 c 8.75214,0 17.50626,0.69299 26.24088,2.08008 l -11.02242,36.89453 h -16.45271 -14.31374 l -10.69484,-36.89453 h 0.004 c 8.73463,-1.38709 17.48493,-2.08008 26.23698,-2.08008 z m -47.7924,8.34961 10.36337,33.93945 c -13.31706,3.07449 -26.55353,7.75941 -39.64599,14.01563 l -13.81849,-30.24219 v -0.01 c 14.21321,-7.6141 28.60271,-13.52368 43.10111,-17.70312 z m 95.92408,0.73437 c 14.54839,4.34749 28.98934,10.37688 43.26098,18.08594 l -13.81847,30.25 C 520.04802,361.08343 506.7245,355.92122 493.72601,352.6067 h 0.82478 z m -159.96641,29.41211 13.37391,29.26563 c -13.49036,8.1184 -27.31305,18.07439 -40.96408,29.51953 l -16.45271,-25.46289 c 15.16366,-12.81142 29.68387,-24.13977 44.04288,-33.32227 z m 223.96194,1.21289 c 14.47639,9.59568 29.28355,21.02742 43.92588,33.9375 l -16.28502,25.45899 c -13.81695,-11.56518 -27.47549,-21.51818 -40.96603,-29.87695 z m -114.0127,38.36914 c 51.04219,2.49798 101.35852,27.57458 148.06851,73.78711 L 616.1308,472.511 H 295.47849 l 11.18815,-10.70118 c 46.71003,-46.21188 97.03216,-71.29064 148.07047,-73.78711 z m -173.90188,12.54297 0.82478,0.01 16.45271,25.08984 c -14.47637,13.65488 -29.44933,29.51687 -44.09162,46.84571 h -36.69199 c 20.55408,-26.61299 41.75796,-50.63029 63.50612,-71.94532 z m 351.74633,2.21094 c 20.83783,20.75245 41.1622,44.02822 60.87579,69.73047 l -0.49525,0.008 -35.04439,-0.008 C 643.93488,455.91011 629.95127,440.77911 616.12885,427.86647 Z M 47.516033,531.53248 a 415.67121,415.6723 0 0 0 22.894962,78.38672 v -36.70313 h 5.266506 v 50.82422 a 415.67121,415.6723 0 0 0 52.842479,86.61133 c 26.47796,-50.29421 54.41917,-96.69845 83.87215,-138.17383 h 485.9944 c 29.32855,41.57645 57.18663,87.93103 83.62257,138.07422 a 415.67121,415.6723 0 0 0 54.57588,-91.36328 v -45.9707 h 5.26456 v 31.85547 a 415.67121,415.6723 0 0 0 21.08551,-73.53516 z m 684.436907,39.84961 h 31.25976 c 14.53936,25.64834 29.24773,51.31607 43.79329,77.68359 l -23.55985,10.86329 C 769.62916,634.4689 755.31282,609.7535 741.16396,586.14186 Z m 62.34988,1.10352 h 23.03535 v 42.42968 c -7.24053,-12.1776 -15.13539,-28.04195 -23.20109,-41.69531 z m -700.856469,0.73046 h 22.701919 c -6.24985,13.28258 -14.80221,26.56583 -22.701919,40.22071 z m 85.548999,0 -9.21297,14.76172 c -13.98279,22.5058 -28.1337,46.48879 -41.78886,71.57618 l -24.02001,-10.70118 c 14.47636,-26.56496 29.11823,-52.02429 43.76599,-73.78515 z" /><path
   id="outer"
   style="color:#000000;fill:#ec1f27;fill-opacity:1;stroke-width:0.999997;stroke-miterlimit:4.2;-inkscape-stroke:none;paint-order:stroke fill markers"
   d="M 455.22652,-3.9147949e-7 C 204.07117,-3.9147949e-7 4.6484377e-7,204.07109 4.6484377e-7,455.22636 4.6484377e-7,706.38161 204.07117,910.45271 455.22652,910.45271 706.38184,910.45271 910.453,706.38161 910.453,455.22636 910.453,204.07109 706.38184,-3.9147949e-7 455.22652,-3.9147949e-7 Z M 455.22652,21.918407 A 433.30959,433.30946 0 0 1 888.53459,455.22636 433.30959,433.30946 0 0 1 455.22652,888.5343 433.30959,433.30946 0 0 1 21.918412,455.22636 433.30959,433.30946 0 0 1 455.22652,21.918407 Z" /><g
   id="guides"
   style="display:none;stroke-width:0.424702"
   transform="matrix(2.3565747,0,0,2.3526041,-106.29169,-105.15475)"><rect
     style="fill:#000000;fill-opacity:1;stroke:none;stroke-width:3.39762;stroke-linecap:butt;stroke-linejoin:miter;stroke-miterlimit:4.2;stroke-dasharray:none;stroke-dashoffset:0;stroke-opacity:1;paint-order:markers stroke fill"
     id="rect31"
     width="10.186544"
     height="10.517244"
     x="34.591812"
     y="233.67891"
     ry="0.16740865" /><rect
     style="fill:#000000;fill-opacity:1;stroke:none;stroke-width:3.39762;stroke-linecap:butt;stroke-linejoin:miter;stroke-miterlimit:4.2;stroke-dasharray:none;stroke-dashoffset:0;stroke-opacity:1;paint-order:markers stroke fill"
     id="rect31-9"
     width="10.186544"
     height="10.517244"
     x="431.77618"
     y="233.67891"
     ry="0.16740865" /><rect
     style="fill:#000000;fill-opacity:1;stroke:none;stroke-width:3.39762;stroke-linecap:butt;stroke-linejoin:miter;stroke-miterlimit:4.2;stroke-dasharray:none;stroke-dashoffset:0;stroke-opacity:1;paint-order:markers stroke fill"
     id="rect31-9-2"
     width="10.186544"
     height="10.517244"
     x="233.34004"
     y="34.166733"
     ry="0.16740865" /><rect
     style="fill:#000000;fill-opacity:1;stroke:none;stroke-width:3.39762;stroke-linecap:butt;stroke-linejoin:miter;stroke-miterlimit:4.2;stroke-dasharray:none;stroke-dashoffset:0;stroke-opacity:1;paint-order:markers stroke fill"
     id="rect31-9-2-4"
     width="10.186544"
     height="10.517244"
     x="233.34004"
     y="431.68179"
     ry="0.16740865" /></g></svg>
